<mxfile host="Electron" modified="2024-02-14T18:57:09.267Z" agent="Mozilla/5.0 (Windows NT 10.0; Win64; x64) AppleWebKit/537.36 (KHTML, like Gecko) draw.io/22.0.3 Chrome/114.0.5735.289 Electron/25.8.4 Safari/537.36" etag="ZsR7NSdOJoHo0L2xuXqq" version="22.0.3" type="device">
  <diagram id="siGR09fUICwrw4aRAdyt" name="Página-1">
    <mxGraphModel dx="869" dy="532" grid="0" gridSize="10" guides="1" tooltips="1" connect="1" arrows="1" fold="1" page="1" pageScale="1" pageWidth="10000" pageHeight="10000" math="0" shadow="0">
      <root>
        <mxCell id="0" />
        <mxCell id="1" parent="0" />
        <mxCell id="G65K9xq3bO0bzET8S1sZ-1" value="LS" style="text;html=1;strokeColor=none;fillColor=none;align=center;verticalAlign=middle;whiteSpace=wrap;rounded=0;" parent="1" vertex="1">
          <mxGeometry x="2720" y="1930" width="60" height="30" as="geometry" />
        </mxCell>
        <mxCell id="G65K9xq3bO0bzET8S1sZ-2" value="GET" style="text;html=1;strokeColor=none;fillColor=none;align=center;verticalAlign=middle;whiteSpace=wrap;rounded=0;" parent="1" vertex="1">
          <mxGeometry x="3210" y="1880" width="60" height="30" as="geometry" />
        </mxCell>
        <mxCell id="G65K9xq3bO0bzET8S1sZ-3" value="PUT" style="text;html=1;strokeColor=none;fillColor=none;align=center;verticalAlign=middle;whiteSpace=wrap;rounded=0;" parent="1" vertex="1">
          <mxGeometry x="3710" y="1900" width="60" height="30" as="geometry" />
        </mxCell>
        <mxCell id="G65K9xq3bO0bzET8S1sZ-4" value="CD" style="text;html=1;strokeColor=none;fillColor=none;align=center;verticalAlign=middle;whiteSpace=wrap;rounded=0;" parent="1" vertex="1">
          <mxGeometry x="4180" y="1920" width="60" height="30" as="geometry" />
        </mxCell>
        <mxCell id="G65K9xq3bO0bzET8S1sZ-5" value="DEL" style="text;html=1;strokeColor=none;fillColor=none;align=center;verticalAlign=middle;whiteSpace=wrap;rounded=0;" parent="1" vertex="1">
          <mxGeometry x="4580" y="1920" width="60" height="30" as="geometry" />
        </mxCell>
        <mxCell id="G65K9xq3bO0bzET8S1sZ-6" value="RMDIR" style="text;html=1;strokeColor=none;fillColor=none;align=center;verticalAlign=middle;whiteSpace=wrap;rounded=0;" parent="1" vertex="1">
          <mxGeometry x="5280" y="1930" width="60" height="30" as="geometry" />
        </mxCell>
        <mxCell id="G65K9xq3bO0bzET8S1sZ-8" value="INICIO DE SESIÓN" style="text;html=1;strokeColor=none;fillColor=none;align=center;verticalAlign=middle;whiteSpace=wrap;rounded=0;" parent="1" vertex="1">
          <mxGeometry x="1661" y="1870" width="155" height="30" as="geometry" />
        </mxCell>
        <mxCell id="G65K9xq3bO0bzET8S1sZ-9" value="CLIENTE" style="shape=umlLifeline;perimeter=lifelinePerimeter;container=1;collapsible=0;recursiveResize=0;rounded=0;shadow=0;strokeWidth=1;" parent="1" vertex="1">
          <mxGeometry x="1600" y="1910" width="100" height="390" as="geometry" />
        </mxCell>
        <mxCell id="G65K9xq3bO0bzET8S1sZ-10" value="" style="points=[];perimeter=orthogonalPerimeter;rounded=0;shadow=0;strokeWidth=1;" parent="G65K9xq3bO0bzET8S1sZ-9" vertex="1">
          <mxGeometry x="45" y="70" width="10" height="290" as="geometry" />
        </mxCell>
        <mxCell id="G65K9xq3bO0bzET8S1sZ-22" value="" style="shape=curlyBracket;whiteSpace=wrap;html=1;rounded=1;labelPosition=left;verticalLabelPosition=middle;align=right;verticalAlign=middle;size=0.5;" parent="G65K9xq3bO0bzET8S1sZ-9" vertex="1">
          <mxGeometry x="10" y="200" width="20" height="50" as="geometry" />
        </mxCell>
        <mxCell id="G65K9xq3bO0bzET8S1sZ-13" value="SERVIDOR" style="shape=umlLifeline;perimeter=lifelinePerimeter;container=1;collapsible=0;recursiveResize=0;rounded=0;shadow=0;strokeWidth=1;" parent="1" vertex="1">
          <mxGeometry x="1780" y="1910" width="100" height="390" as="geometry" />
        </mxCell>
        <mxCell id="G65K9xq3bO0bzET8S1sZ-14" value="" style="points=[];perimeter=orthogonalPerimeter;rounded=0;shadow=0;strokeWidth=1;" parent="G65K9xq3bO0bzET8S1sZ-13" vertex="1">
          <mxGeometry x="45" y="80" width="10" height="280" as="geometry" />
        </mxCell>
        <mxCell id="G65K9xq3bO0bzET8S1sZ-19" value="INT tipo" style="verticalAlign=bottom;endArrow=block;entryX=0;entryY=0;shadow=0;strokeWidth=1;" parent="G65K9xq3bO0bzET8S1sZ-13" edge="1">
          <mxGeometry relative="1" as="geometry">
            <mxPoint x="-125" y="159.68000000000023" as="sourcePoint" />
            <mxPoint x="45" y="159.68000000000023" as="targetPoint" />
          </mxGeometry>
        </mxCell>
        <mxCell id="G65K9xq3bO0bzET8S1sZ-20" value="STRING usuario" style="verticalAlign=bottom;endArrow=block;entryX=0;entryY=0;shadow=0;strokeWidth=1;" parent="1" edge="1">
          <mxGeometry relative="1" as="geometry">
            <mxPoint x="1655" y="2110" as="sourcePoint" />
            <mxPoint x="1825" y="2110" as="targetPoint" />
          </mxGeometry>
        </mxCell>
        <mxCell id="G65K9xq3bO0bzET8S1sZ-21" value="STRING contraseña" style="verticalAlign=bottom;endArrow=block;entryX=0;entryY=0;shadow=0;strokeWidth=1;" parent="1" edge="1">
          <mxGeometry relative="1" as="geometry">
            <mxPoint x="1655" y="2157" as="sourcePoint" />
            <mxPoint x="1825" y="2157" as="targetPoint" />
          </mxGeometry>
        </mxCell>
        <mxCell id="G65K9xq3bO0bzET8S1sZ-23" value="Si tipo 1 NORMAL" style="text;html=1;strokeColor=none;fillColor=none;align=center;verticalAlign=middle;whiteSpace=wrap;rounded=0;" parent="1" vertex="1">
          <mxGeometry x="1550" y="2120" width="60" height="30" as="geometry" />
        </mxCell>
        <mxCell id="G65K9xq3bO0bzET8S1sZ-25" style="edgeStyle=orthogonalEdgeStyle;rounded=0;orthogonalLoop=1;jettySize=auto;html=1;dashed=1;endArrow=oval;endFill=1;" parent="1" source="G65K9xq3bO0bzET8S1sZ-24" edge="1">
          <mxGeometry relative="1" as="geometry">
            <mxPoint x="1770" y="2060" as="targetPoint" />
          </mxGeometry>
        </mxCell>
        <mxCell id="G65K9xq3bO0bzET8S1sZ-24" value="0: LOGIN_ANONIMO&lt;br&gt;1:LOGIN_NORMAL" style="shape=note;whiteSpace=wrap;html=1;backgroundOutline=1;darkOpacity=0.05;" parent="1" vertex="1">
          <mxGeometry x="1880" y="2010" width="130" height="100" as="geometry" />
        </mxCell>
        <mxCell id="G65K9xq3bO0bzET8S1sZ-26" value="INT respuesta login" style="verticalAlign=bottom;endArrow=block;entryX=1;entryY=0;shadow=0;strokeWidth=1;" parent="1" edge="1">
          <mxGeometry relative="1" as="geometry">
            <mxPoint x="1822" y="2200" as="sourcePoint" />
            <mxPoint x="1657" y="2200" as="targetPoint" />
          </mxGeometry>
        </mxCell>
        <mxCell id="G65K9xq3bO0bzET8S1sZ-27" style="edgeStyle=orthogonalEdgeStyle;rounded=0;orthogonalLoop=1;jettySize=auto;html=1;dashed=1;endArrow=oval;endFill=1;" parent="1" source="G65K9xq3bO0bzET8S1sZ-28" edge="1">
          <mxGeometry relative="1" as="geometry">
            <mxPoint x="1800" y="2190" as="targetPoint" />
            <Array as="points">
              <mxPoint x="1800" y="2190" />
              <mxPoint x="1800" y="2190" />
            </Array>
          </mxGeometry>
        </mxCell>
        <mxCell id="G65K9xq3bO0bzET8S1sZ-28" value="10: LOGIN_OK&lt;br&gt;1000:LOGIN_DATOS_MAL&lt;br&gt;" style="shape=note;whiteSpace=wrap;html=1;backgroundOutline=1;darkOpacity=0.05;" parent="1" vertex="1">
          <mxGeometry x="1880" y="2140" width="180" height="100" as="geometry" />
        </mxCell>
        <mxCell id="G65K9xq3bO0bzET8S1sZ-29" value="EXIT" style="text;html=1;strokeColor=none;fillColor=none;align=center;verticalAlign=middle;whiteSpace=wrap;rounded=0;" parent="1" vertex="1">
          <mxGeometry x="2310" y="1920" width="60" height="30" as="geometry" />
        </mxCell>
        <mxCell id="G65K9xq3bO0bzET8S1sZ-30" value="CLIENTE" style="shape=umlLifeline;perimeter=lifelinePerimeter;container=1;collapsible=0;recursiveResize=0;rounded=0;shadow=0;strokeWidth=1;" parent="1" vertex="1">
          <mxGeometry x="2200" y="1960" width="100" height="180" as="geometry" />
        </mxCell>
        <mxCell id="G65K9xq3bO0bzET8S1sZ-31" value="" style="points=[];perimeter=orthogonalPerimeter;rounded=0;shadow=0;strokeWidth=1;" parent="G65K9xq3bO0bzET8S1sZ-30" vertex="1">
          <mxGeometry x="45" y="70" width="10" height="90" as="geometry" />
        </mxCell>
        <mxCell id="G65K9xq3bO0bzET8S1sZ-33" value="SERVIDOR" style="shape=umlLifeline;perimeter=lifelinePerimeter;container=1;collapsible=0;recursiveResize=0;rounded=0;shadow=0;strokeWidth=1;" parent="1" vertex="1">
          <mxGeometry x="2380" y="1960" width="100" height="180" as="geometry" />
        </mxCell>
        <mxCell id="G65K9xq3bO0bzET8S1sZ-34" value="" style="points=[];perimeter=orthogonalPerimeter;rounded=0;shadow=0;strokeWidth=1;" parent="G65K9xq3bO0bzET8S1sZ-33" vertex="1">
          <mxGeometry x="45" y="80" width="10" height="80" as="geometry" />
        </mxCell>
        <mxCell id="G65K9xq3bO0bzET8S1sZ-36" value="STRING &quot;EXIT&quot;" style="verticalAlign=bottom;endArrow=block;entryX=0;entryY=0;shadow=0;strokeWidth=1;" parent="1" source="G65K9xq3bO0bzET8S1sZ-31" target="G65K9xq3bO0bzET8S1sZ-34" edge="1">
          <mxGeometry relative="1" as="geometry">
            <mxPoint x="2355" y="2040" as="sourcePoint" />
          </mxGeometry>
        </mxCell>
        <mxCell id="G65K9xq3bO0bzET8S1sZ-37" value="INT CODIGO" style="verticalAlign=bottom;endArrow=block;entryX=1;entryY=0;shadow=0;strokeWidth=1;" parent="1" source="G65K9xq3bO0bzET8S1sZ-34" edge="1">
          <mxGeometry relative="1" as="geometry">
            <mxPoint x="2320" y="2080" as="sourcePoint" />
            <mxPoint x="2260" y="2080" as="targetPoint" />
          </mxGeometry>
        </mxCell>
        <mxCell id="G65K9xq3bO0bzET8S1sZ-46" value="CLIENTE" style="shape=umlLifeline;perimeter=lifelinePerimeter;container=1;collapsible=0;recursiveResize=0;rounded=0;shadow=0;strokeWidth=1;" parent="1" vertex="1">
          <mxGeometry x="2600" y="1960" width="100" height="280" as="geometry" />
        </mxCell>
        <mxCell id="G65K9xq3bO0bzET8S1sZ-47" value="" style="points=[];perimeter=orthogonalPerimeter;rounded=0;shadow=0;strokeWidth=1;" parent="G65K9xq3bO0bzET8S1sZ-46" vertex="1">
          <mxGeometry x="45" y="70" width="10" height="210" as="geometry" />
        </mxCell>
        <mxCell id="G65K9xq3bO0bzET8S1sZ-48" value="SERVIDOR" style="shape=umlLifeline;perimeter=lifelinePerimeter;container=1;collapsible=0;recursiveResize=0;rounded=0;shadow=0;strokeWidth=1;" parent="1" vertex="1">
          <mxGeometry x="2790" y="1960" width="100" height="280" as="geometry" />
        </mxCell>
        <mxCell id="G65K9xq3bO0bzET8S1sZ-49" value="" style="points=[];perimeter=orthogonalPerimeter;rounded=0;shadow=0;strokeWidth=1;" parent="G65K9xq3bO0bzET8S1sZ-48" vertex="1">
          <mxGeometry x="50" y="80" width="10" height="200" as="geometry" />
        </mxCell>
        <mxCell id="G65K9xq3bO0bzET8S1sZ-57" value="" style="shape=curlyBracket;whiteSpace=wrap;html=1;rounded=1;flipH=1;labelPosition=right;verticalLabelPosition=middle;align=left;verticalAlign=middle;" parent="G65K9xq3bO0bzET8S1sZ-48" vertex="1">
          <mxGeometry x="60" y="150" width="20" height="100" as="geometry" />
        </mxCell>
        <mxCell id="G65K9xq3bO0bzET8S1sZ-59" value="STRING CWD" style="verticalAlign=bottom;endArrow=block;entryX=0.943;entryY=0.427;shadow=0;strokeWidth=1;entryDx=0;entryDy=0;entryPerimeter=0;" parent="G65K9xq3bO0bzET8S1sZ-48" target="G65K9xq3bO0bzET8S1sZ-47" edge="1">
          <mxGeometry relative="1" as="geometry">
            <mxPoint x="45" y="160" as="sourcePoint" />
            <mxPoint x="-120" y="160" as="targetPoint" />
          </mxGeometry>
        </mxCell>
        <mxCell id="G65K9xq3bO0bzET8S1sZ-50" value="STRING &quot;LS&quot;" style="verticalAlign=bottom;endArrow=block;entryX=0;entryY=0;shadow=0;strokeWidth=1;" parent="1" source="G65K9xq3bO0bzET8S1sZ-47" target="G65K9xq3bO0bzET8S1sZ-49" edge="1">
          <mxGeometry relative="1" as="geometry">
            <mxPoint x="2755" y="2040" as="sourcePoint" />
          </mxGeometry>
        </mxCell>
        <mxCell id="G65K9xq3bO0bzET8S1sZ-51" value="INT CODIGO" style="verticalAlign=bottom;endArrow=block;entryX=0.886;entryY=0.239;shadow=0;strokeWidth=1;entryDx=0;entryDy=0;entryPerimeter=0;" parent="1" source="G65K9xq3bO0bzET8S1sZ-49" target="G65K9xq3bO0bzET8S1sZ-47" edge="1">
          <mxGeometry relative="1" as="geometry">
            <mxPoint x="2720" y="2080" as="sourcePoint" />
            <mxPoint x="2660" y="2080" as="targetPoint" />
          </mxGeometry>
        </mxCell>
        <mxCell id="G65K9xq3bO0bzET8S1sZ-53" value="CODIGOS GENERALES&lt;br&gt;10: OK&lt;br&gt;1000: ERROR&lt;br&gt;1100: NO_ESCRITURA&lt;br&gt;1200: NO_EXISTE" style="shape=note;whiteSpace=wrap;html=1;backgroundOutline=1;darkOpacity=0.05;" parent="1" vertex="1">
          <mxGeometry x="2270" y="2230" width="220" height="100" as="geometry" />
        </mxCell>
        <mxCell id="G65K9xq3bO0bzET8S1sZ-54" style="edgeStyle=orthogonalEdgeStyle;rounded=0;orthogonalLoop=1;jettySize=auto;html=1;dashed=1;endArrow=oval;endFill=1;" parent="1" source="G65K9xq3bO0bzET8S1sZ-53" edge="1">
          <mxGeometry relative="1" as="geometry">
            <mxPoint x="2340" y="2090" as="targetPoint" />
            <mxPoint x="1929.9999999999998" y="2250.0434782608695" as="sourcePoint" />
            <Array as="points">
              <mxPoint x="2340" y="2210" />
              <mxPoint x="2340" y="2210" />
            </Array>
          </mxGeometry>
        </mxCell>
        <mxCell id="G65K9xq3bO0bzET8S1sZ-55" value="INT CANTIDAD N" style="verticalAlign=bottom;endArrow=block;entryX=0.886;entryY=0.612;shadow=0;strokeWidth=1;entryDx=0;entryDy=0;entryPerimeter=0;" parent="1" source="G65K9xq3bO0bzET8S1sZ-48" target="G65K9xq3bO0bzET8S1sZ-47" edge="1">
          <mxGeometry relative="1" as="geometry">
            <mxPoint x="2825" y="2160" as="sourcePoint" />
            <mxPoint x="2660" y="2160" as="targetPoint" />
          </mxGeometry>
        </mxCell>
        <mxCell id="G65K9xq3bO0bzET8S1sZ-58" value="si codigo 10 ok" style="text;html=1;strokeColor=none;fillColor=none;align=center;verticalAlign=middle;whiteSpace=wrap;rounded=0;" parent="1" vertex="1">
          <mxGeometry x="2860" y="2140" width="60" height="30" as="geometry" />
        </mxCell>
        <mxCell id="G65K9xq3bO0bzET8S1sZ-56" value="N STRINGS-INT NOMBRE-TIPO" style="verticalAlign=bottom;endArrow=block;entryX=0.5;entryY=0.81;shadow=0;strokeWidth=1;entryDx=0;entryDy=0;entryPerimeter=0;" parent="1" source="G65K9xq3bO0bzET8S1sZ-48" target="G65K9xq3bO0bzET8S1sZ-47" edge="1">
          <mxGeometry relative="1" as="geometry">
            <mxPoint x="2825" y="2200" as="sourcePoint" />
            <mxPoint x="2660" y="2200" as="targetPoint" />
          </mxGeometry>
        </mxCell>
        <mxCell id="G65K9xq3bO0bzET8S1sZ-61" value="CLIENTE" style="shape=umlLifeline;perimeter=lifelinePerimeter;container=1;collapsible=0;recursiveResize=0;rounded=0;shadow=0;strokeWidth=1;" parent="1" vertex="1">
          <mxGeometry x="3100" y="1960" width="100" height="280" as="geometry" />
        </mxCell>
        <mxCell id="G65K9xq3bO0bzET8S1sZ-62" value="" style="points=[];perimeter=orthogonalPerimeter;rounded=0;shadow=0;strokeWidth=1;" parent="G65K9xq3bO0bzET8S1sZ-61" vertex="1">
          <mxGeometry x="45" y="70" width="10" height="190" as="geometry" />
        </mxCell>
        <mxCell id="VUnnAQBpTD60cogu-Hep-4" value="" style="endArrow=classic;html=1;rounded=0;" parent="G65K9xq3bO0bzET8S1sZ-61" source="G65K9xq3bO0bzET8S1sZ-61" target="G65K9xq3bO0bzET8S1sZ-62" edge="1">
          <mxGeometry width="50" height="50" relative="1" as="geometry">
            <mxPoint x="-107.45999999999913" y="243.80000000000018" as="sourcePoint" />
            <mxPoint x="-110" y="160" as="targetPoint" />
            <Array as="points">
              <mxPoint x="-30" y="260" />
              <mxPoint x="-30" y="200" />
            </Array>
          </mxGeometry>
        </mxCell>
        <mxCell id="G65K9xq3bO0bzET8S1sZ-63" value="SERVIDOR" style="shape=umlLifeline;perimeter=lifelinePerimeter;container=1;collapsible=0;recursiveResize=0;rounded=0;shadow=0;strokeWidth=1;" parent="1" vertex="1">
          <mxGeometry x="3280" y="1960" width="100" height="280" as="geometry" />
        </mxCell>
        <mxCell id="G65K9xq3bO0bzET8S1sZ-64" value="" style="points=[];perimeter=orthogonalPerimeter;rounded=0;shadow=0;strokeWidth=1;" parent="G65K9xq3bO0bzET8S1sZ-63" vertex="1">
          <mxGeometry x="45" y="80" width="10" height="180" as="geometry" />
        </mxCell>
        <mxCell id="G65K9xq3bO0bzET8S1sZ-65" value="" style="shape=curlyBracket;whiteSpace=wrap;html=1;rounded=1;flipH=1;labelPosition=right;verticalLabelPosition=middle;align=left;verticalAlign=middle;" parent="G65K9xq3bO0bzET8S1sZ-63" vertex="1">
          <mxGeometry x="60" y="150" width="20" height="100" as="geometry" />
        </mxCell>
        <mxCell id="G65K9xq3bO0bzET8S1sZ-68" value="INT CODIGO" style="verticalAlign=bottom;endArrow=block;entryX=1;entryY=0;shadow=0;strokeWidth=1;" parent="G65K9xq3bO0bzET8S1sZ-63" edge="1">
          <mxGeometry relative="1" as="geometry">
            <mxPoint x="45" y="140" as="sourcePoint" />
            <mxPoint x="-120" y="140" as="targetPoint" />
          </mxGeometry>
        </mxCell>
        <mxCell id="G65K9xq3bO0bzET8S1sZ-67" value="STRING &quot;GET&quot;" style="verticalAlign=bottom;endArrow=block;entryX=0;entryY=0;shadow=0;strokeWidth=1;" parent="1" source="G65K9xq3bO0bzET8S1sZ-62" target="G65K9xq3bO0bzET8S1sZ-64" edge="1">
          <mxGeometry relative="1" as="geometry">
            <mxPoint x="3255" y="2040" as="sourcePoint" />
          </mxGeometry>
        </mxCell>
        <mxCell id="G65K9xq3bO0bzET8S1sZ-70" value="N BYTES" style="verticalAlign=bottom;endArrow=block;entryX=1;entryY=0;shadow=0;strokeWidth=1;" parent="1" edge="1">
          <mxGeometry relative="1" as="geometry">
            <mxPoint x="3325" y="2170" as="sourcePoint" />
            <mxPoint x="3160" y="2170" as="targetPoint" />
          </mxGeometry>
        </mxCell>
        <mxCell id="G65K9xq3bO0bzET8S1sZ-71" value="STRING RUTA" style="verticalAlign=bottom;endArrow=block;entryX=0;entryY=0;shadow=0;strokeWidth=1;" parent="1" edge="1">
          <mxGeometry relative="1" as="geometry">
            <mxPoint x="3156" y="2070" as="sourcePoint" />
            <mxPoint x="3326" y="2070" as="targetPoint" />
          </mxGeometry>
        </mxCell>
        <mxCell id="G65K9xq3bO0bzET8S1sZ-69" value="INT CANTIDAD N" style="verticalAlign=bottom;endArrow=block;entryX=1;entryY=0;shadow=0;strokeWidth=1;" parent="1" edge="1">
          <mxGeometry relative="1" as="geometry">
            <mxPoint x="3325" y="2139.76" as="sourcePoint" />
            <mxPoint x="3160" y="2139.76" as="targetPoint" />
          </mxGeometry>
        </mxCell>
        <mxCell id="G65K9xq3bO0bzET8S1sZ-73" value="si codigo 10 ok" style="text;html=1;strokeColor=none;fillColor=none;align=center;verticalAlign=middle;whiteSpace=wrap;rounded=0;" parent="1" vertex="1">
          <mxGeometry x="3350" y="2140" width="60" height="30" as="geometry" />
        </mxCell>
        <mxCell id="G65K9xq3bO0bzET8S1sZ-74" value="CLIENTE" style="shape=umlLifeline;perimeter=lifelinePerimeter;container=1;collapsible=0;recursiveResize=0;rounded=0;shadow=0;strokeWidth=1;" parent="1" vertex="1">
          <mxGeometry x="3610" y="1960" width="100" height="280" as="geometry" />
        </mxCell>
        <mxCell id="G65K9xq3bO0bzET8S1sZ-75" value="" style="points=[];perimeter=orthogonalPerimeter;rounded=0;shadow=0;strokeWidth=1;" parent="G65K9xq3bO0bzET8S1sZ-74" vertex="1">
          <mxGeometry x="45" y="70" width="10" height="190" as="geometry" />
        </mxCell>
        <mxCell id="G65K9xq3bO0bzET8S1sZ-78" value="" style="shape=curlyBracket;whiteSpace=wrap;html=1;rounded=1;flipH=1;labelPosition=right;verticalLabelPosition=middle;align=left;verticalAlign=middle;rotation=-180;" parent="G65K9xq3bO0bzET8S1sZ-74" vertex="1">
          <mxGeometry x="25" y="160" width="20" height="100" as="geometry" />
        </mxCell>
        <mxCell id="G65K9xq3bO0bzET8S1sZ-76" value="SERVIDOR" style="shape=umlLifeline;perimeter=lifelinePerimeter;container=1;collapsible=0;recursiveResize=0;rounded=0;shadow=0;strokeWidth=1;" parent="1" vertex="1">
          <mxGeometry x="3790" y="1960" width="100" height="300" as="geometry" />
        </mxCell>
        <mxCell id="G65K9xq3bO0bzET8S1sZ-77" value="" style="points=[];perimeter=orthogonalPerimeter;rounded=0;shadow=0;strokeWidth=1;" parent="G65K9xq3bO0bzET8S1sZ-76" vertex="1">
          <mxGeometry x="45" y="80" width="10" height="200" as="geometry" />
        </mxCell>
        <mxCell id="G65K9xq3bO0bzET8S1sZ-79" value="INT CODIGO" style="verticalAlign=bottom;endArrow=block;entryX=1;entryY=0;shadow=0;strokeWidth=1;" parent="G65K9xq3bO0bzET8S1sZ-76" edge="1">
          <mxGeometry relative="1" as="geometry">
            <mxPoint x="45" y="140" as="sourcePoint" />
            <mxPoint x="-120" y="140" as="targetPoint" />
          </mxGeometry>
        </mxCell>
        <mxCell id="VUnnAQBpTD60cogu-Hep-3" value="" style="endArrow=classic;html=1;rounded=0;exitX=1.641;exitY=0.893;exitDx=0;exitDy=0;exitPerimeter=0;entryX=1.387;entryY=0.474;entryDx=0;entryDy=0;entryPerimeter=0;" parent="G65K9xq3bO0bzET8S1sZ-76" source="G65K9xq3bO0bzET8S1sZ-77" target="G65K9xq3bO0bzET8S1sZ-77" edge="1">
          <mxGeometry width="50" height="50" relative="1" as="geometry">
            <mxPoint x="-110" y="200" as="sourcePoint" />
            <mxPoint x="130" y="200" as="targetPoint" />
            <Array as="points">
              <mxPoint x="140" y="260" />
              <mxPoint x="140" y="180" />
            </Array>
          </mxGeometry>
        </mxCell>
        <mxCell id="G65K9xq3bO0bzET8S1sZ-80" value="STRING &quot;PUT&quot;" style="verticalAlign=bottom;endArrow=block;entryX=0;entryY=0;shadow=0;strokeWidth=1;" parent="1" source="G65K9xq3bO0bzET8S1sZ-75" target="G65K9xq3bO0bzET8S1sZ-77" edge="1">
          <mxGeometry relative="1" as="geometry">
            <mxPoint x="3765" y="2040" as="sourcePoint" />
          </mxGeometry>
        </mxCell>
        <mxCell id="G65K9xq3bO0bzET8S1sZ-81" value="N BYTES" style="verticalAlign=bottom;endArrow=none;entryX=1;entryY=0;shadow=0;strokeWidth=1;endFill=0;startArrow=block;startFill=1;" parent="1" edge="1">
          <mxGeometry relative="1" as="geometry">
            <mxPoint x="3835" y="2171" as="sourcePoint" />
            <mxPoint x="3670" y="2171" as="targetPoint" />
          </mxGeometry>
        </mxCell>
        <mxCell id="G65K9xq3bO0bzET8S1sZ-82" value="STRING NOMBRE" style="verticalAlign=bottom;endArrow=block;entryX=0;entryY=0;shadow=0;strokeWidth=1;" parent="1" edge="1">
          <mxGeometry x="0.1059" relative="1" as="geometry">
            <mxPoint x="3666" y="2070" as="sourcePoint" />
            <mxPoint x="3836" y="2070" as="targetPoint" />
            <mxPoint as="offset" />
          </mxGeometry>
        </mxCell>
        <mxCell id="G65K9xq3bO0bzET8S1sZ-83" value="INT CANTIDAD N" style="verticalAlign=bottom;endArrow=none;entryX=1;entryY=0;shadow=0;strokeWidth=1;startArrow=block;startFill=1;endFill=0;" parent="1" edge="1">
          <mxGeometry relative="1" as="geometry">
            <mxPoint x="3835" y="2134.76" as="sourcePoint" />
            <mxPoint x="3670" y="2134.76" as="targetPoint" />
          </mxGeometry>
        </mxCell>
        <mxCell id="G65K9xq3bO0bzET8S1sZ-85" value="si codigo 10 ok" style="text;html=1;strokeColor=none;fillColor=none;align=center;verticalAlign=middle;whiteSpace=wrap;rounded=0;" parent="1" vertex="1">
          <mxGeometry x="3550" y="2150" width="60" height="30" as="geometry" />
        </mxCell>
        <mxCell id="G65K9xq3bO0bzET8S1sZ-86" value="CLIENTE" style="shape=umlLifeline;perimeter=lifelinePerimeter;container=1;collapsible=0;recursiveResize=0;rounded=0;shadow=0;strokeWidth=1;" parent="1" vertex="1">
          <mxGeometry x="4070" y="1960" width="100" height="200" as="geometry" />
        </mxCell>
        <mxCell id="G65K9xq3bO0bzET8S1sZ-87" value="" style="points=[];perimeter=orthogonalPerimeter;rounded=0;shadow=0;strokeWidth=1;" parent="G65K9xq3bO0bzET8S1sZ-86" vertex="1">
          <mxGeometry x="45" y="70" width="10" height="110" as="geometry" />
        </mxCell>
        <mxCell id="G65K9xq3bO0bzET8S1sZ-88" value="SERVIDOR" style="shape=umlLifeline;perimeter=lifelinePerimeter;container=1;collapsible=0;recursiveResize=0;rounded=0;shadow=0;strokeWidth=1;" parent="1" vertex="1">
          <mxGeometry x="4250" y="1960" width="100" height="200" as="geometry" />
        </mxCell>
        <mxCell id="G65K9xq3bO0bzET8S1sZ-89" value="" style="points=[];perimeter=orthogonalPerimeter;rounded=0;shadow=0;strokeWidth=1;" parent="G65K9xq3bO0bzET8S1sZ-88" vertex="1">
          <mxGeometry x="45" y="80" width="10" height="100" as="geometry" />
        </mxCell>
        <mxCell id="G65K9xq3bO0bzET8S1sZ-91" value="INT CODIGO RESULTADO" style="verticalAlign=bottom;endArrow=block;entryX=1;entryY=0;shadow=0;strokeWidth=1;" parent="G65K9xq3bO0bzET8S1sZ-88" edge="1">
          <mxGeometry relative="1" as="geometry">
            <mxPoint x="45" y="140" as="sourcePoint" />
            <mxPoint x="-120" y="140" as="targetPoint" />
          </mxGeometry>
        </mxCell>
        <mxCell id="G65K9xq3bO0bzET8S1sZ-92" value="STRING &quot;CD&quot;" style="verticalAlign=bottom;endArrow=block;entryX=0;entryY=0;shadow=0;strokeWidth=1;" parent="1" source="G65K9xq3bO0bzET8S1sZ-87" target="G65K9xq3bO0bzET8S1sZ-89" edge="1">
          <mxGeometry relative="1" as="geometry">
            <mxPoint x="4225" y="2040" as="sourcePoint" />
          </mxGeometry>
        </mxCell>
        <mxCell id="G65K9xq3bO0bzET8S1sZ-94" value="STRING RUTA" style="verticalAlign=bottom;endArrow=block;entryX=0;entryY=0;shadow=0;strokeWidth=1;" parent="1" edge="1">
          <mxGeometry relative="1" as="geometry">
            <mxPoint x="4126" y="2070" as="sourcePoint" />
            <mxPoint x="4296" y="2070" as="targetPoint" />
          </mxGeometry>
        </mxCell>
        <mxCell id="G65K9xq3bO0bzET8S1sZ-96" value="CLIENTE" style="shape=umlLifeline;perimeter=lifelinePerimeter;container=1;collapsible=0;recursiveResize=0;rounded=0;shadow=0;strokeWidth=1;" parent="1" vertex="1">
          <mxGeometry x="4460" y="1960" width="100" height="200" as="geometry" />
        </mxCell>
        <mxCell id="G65K9xq3bO0bzET8S1sZ-97" value="" style="points=[];perimeter=orthogonalPerimeter;rounded=0;shadow=0;strokeWidth=1;" parent="G65K9xq3bO0bzET8S1sZ-96" vertex="1">
          <mxGeometry x="45" y="70" width="10" height="110" as="geometry" />
        </mxCell>
        <mxCell id="G65K9xq3bO0bzET8S1sZ-98" value="SERVIDOR" style="shape=umlLifeline;perimeter=lifelinePerimeter;container=1;collapsible=0;recursiveResize=0;rounded=0;shadow=0;strokeWidth=1;" parent="1" vertex="1">
          <mxGeometry x="4640" y="1960" width="100" height="200" as="geometry" />
        </mxCell>
        <mxCell id="G65K9xq3bO0bzET8S1sZ-99" value="" style="points=[];perimeter=orthogonalPerimeter;rounded=0;shadow=0;strokeWidth=1;" parent="G65K9xq3bO0bzET8S1sZ-98" vertex="1">
          <mxGeometry x="45" y="80" width="10" height="100" as="geometry" />
        </mxCell>
        <mxCell id="G65K9xq3bO0bzET8S1sZ-100" value="INT CODIGO RESULTADO" style="verticalAlign=bottom;endArrow=block;entryX=1;entryY=0;shadow=0;strokeWidth=1;" parent="G65K9xq3bO0bzET8S1sZ-98" edge="1">
          <mxGeometry relative="1" as="geometry">
            <mxPoint x="45" y="120" as="sourcePoint" />
            <mxPoint x="-120" y="120" as="targetPoint" />
          </mxGeometry>
        </mxCell>
        <mxCell id="G65K9xq3bO0bzET8S1sZ-101" value="STRING &quot;DEL&quot;" style="verticalAlign=bottom;endArrow=block;entryX=0;entryY=0;shadow=0;strokeWidth=1;" parent="1" source="G65K9xq3bO0bzET8S1sZ-97" target="G65K9xq3bO0bzET8S1sZ-99" edge="1">
          <mxGeometry relative="1" as="geometry">
            <mxPoint x="4615" y="2040" as="sourcePoint" />
          </mxGeometry>
        </mxCell>
        <mxCell id="G65K9xq3bO0bzET8S1sZ-103" value="CLIENTE" style="shape=umlLifeline;perimeter=lifelinePerimeter;container=1;collapsible=0;recursiveResize=0;rounded=0;shadow=0;strokeWidth=1;" parent="1" vertex="1">
          <mxGeometry x="5170" y="1960" width="100" height="200" as="geometry" />
        </mxCell>
        <mxCell id="G65K9xq3bO0bzET8S1sZ-104" value="" style="points=[];perimeter=orthogonalPerimeter;rounded=0;shadow=0;strokeWidth=1;" parent="G65K9xq3bO0bzET8S1sZ-103" vertex="1">
          <mxGeometry x="45" y="70" width="10" height="110" as="geometry" />
        </mxCell>
        <mxCell id="G65K9xq3bO0bzET8S1sZ-105" value="SERVIDOR" style="shape=umlLifeline;perimeter=lifelinePerimeter;container=1;collapsible=0;recursiveResize=0;rounded=0;shadow=0;strokeWidth=1;" parent="1" vertex="1">
          <mxGeometry x="5350" y="1960" width="100" height="200" as="geometry" />
        </mxCell>
        <mxCell id="G65K9xq3bO0bzET8S1sZ-106" value="" style="points=[];perimeter=orthogonalPerimeter;rounded=0;shadow=0;strokeWidth=1;" parent="G65K9xq3bO0bzET8S1sZ-105" vertex="1">
          <mxGeometry x="45" y="80" width="10" height="100" as="geometry" />
        </mxCell>
        <mxCell id="G65K9xq3bO0bzET8S1sZ-107" value="INT CODIGO RESULTADO" style="verticalAlign=bottom;endArrow=block;entryX=1;entryY=0;shadow=0;strokeWidth=1;" parent="G65K9xq3bO0bzET8S1sZ-105" edge="1">
          <mxGeometry relative="1" as="geometry">
            <mxPoint x="45" y="140" as="sourcePoint" />
            <mxPoint x="-120" y="140" as="targetPoint" />
          </mxGeometry>
        </mxCell>
        <mxCell id="G65K9xq3bO0bzET8S1sZ-108" value="STRING &quot;RMDIR&quot;" style="verticalAlign=bottom;endArrow=block;entryX=0;entryY=0;shadow=0;strokeWidth=1;" parent="1" source="G65K9xq3bO0bzET8S1sZ-104" target="G65K9xq3bO0bzET8S1sZ-106" edge="1">
          <mxGeometry relative="1" as="geometry">
            <mxPoint x="5325" y="2040" as="sourcePoint" />
          </mxGeometry>
        </mxCell>
        <mxCell id="G65K9xq3bO0bzET8S1sZ-109" value="STRING RUTA" style="verticalAlign=bottom;endArrow=block;entryX=0;entryY=0;shadow=0;strokeWidth=1;" parent="1" edge="1">
          <mxGeometry relative="1" as="geometry">
            <mxPoint x="5226" y="2070" as="sourcePoint" />
            <mxPoint x="5396" y="2070" as="targetPoint" />
          </mxGeometry>
        </mxCell>
        <mxCell id="G65K9xq3bO0bzET8S1sZ-110" value="MKDIR" style="text;html=1;strokeColor=none;fillColor=none;align=center;verticalAlign=middle;whiteSpace=wrap;rounded=0;" parent="1" vertex="1">
          <mxGeometry x="4910" y="1930" width="60" height="30" as="geometry" />
        </mxCell>
        <mxCell id="G65K9xq3bO0bzET8S1sZ-111" value="CLIENTE" style="shape=umlLifeline;perimeter=lifelinePerimeter;container=1;collapsible=0;recursiveResize=0;rounded=0;shadow=0;strokeWidth=1;" parent="1" vertex="1">
          <mxGeometry x="4800" y="1960" width="100" height="200" as="geometry" />
        </mxCell>
        <mxCell id="G65K9xq3bO0bzET8S1sZ-112" value="" style="points=[];perimeter=orthogonalPerimeter;rounded=0;shadow=0;strokeWidth=1;" parent="G65K9xq3bO0bzET8S1sZ-111" vertex="1">
          <mxGeometry x="45" y="70" width="10" height="110" as="geometry" />
        </mxCell>
        <mxCell id="G65K9xq3bO0bzET8S1sZ-113" value="SERVIDOR" style="shape=umlLifeline;perimeter=lifelinePerimeter;container=1;collapsible=0;recursiveResize=0;rounded=0;shadow=0;strokeWidth=1;" parent="1" vertex="1">
          <mxGeometry x="4980" y="1960" width="100" height="200" as="geometry" />
        </mxCell>
        <mxCell id="G65K9xq3bO0bzET8S1sZ-114" value="" style="points=[];perimeter=orthogonalPerimeter;rounded=0;shadow=0;strokeWidth=1;" parent="G65K9xq3bO0bzET8S1sZ-113" vertex="1">
          <mxGeometry x="45" y="80" width="10" height="100" as="geometry" />
        </mxCell>
        <mxCell id="G65K9xq3bO0bzET8S1sZ-115" value="INT CODIGO RESULTADO" style="verticalAlign=bottom;endArrow=block;entryX=1;entryY=0;shadow=0;strokeWidth=1;" parent="G65K9xq3bO0bzET8S1sZ-113" edge="1">
          <mxGeometry relative="1" as="geometry">
            <mxPoint x="45" y="140" as="sourcePoint" />
            <mxPoint x="-120" y="140" as="targetPoint" />
          </mxGeometry>
        </mxCell>
        <mxCell id="G65K9xq3bO0bzET8S1sZ-116" value="STRING &quot;MKDIR&quot;" style="verticalAlign=bottom;endArrow=block;entryX=0;entryY=0;shadow=0;strokeWidth=1;" parent="1" source="G65K9xq3bO0bzET8S1sZ-112" target="G65K9xq3bO0bzET8S1sZ-114" edge="1">
          <mxGeometry relative="1" as="geometry">
            <mxPoint x="4955" y="2040" as="sourcePoint" />
          </mxGeometry>
        </mxCell>
        <mxCell id="G65K9xq3bO0bzET8S1sZ-117" value="STRING RUTA" style="verticalAlign=bottom;endArrow=block;entryX=0;entryY=0;shadow=0;strokeWidth=1;" parent="1" edge="1">
          <mxGeometry relative="1" as="geometry">
            <mxPoint x="4856" y="2070" as="sourcePoint" />
            <mxPoint x="5026" y="2070" as="targetPoint" />
          </mxGeometry>
        </mxCell>
        <mxCell id="G65K9xq3bO0bzET8S1sZ-118" style="edgeStyle=orthogonalEdgeStyle;rounded=0;orthogonalLoop=1;jettySize=auto;html=1;dashed=1;endArrow=oval;endFill=1;" parent="1" source="G65K9xq3bO0bzET8S1sZ-53" edge="1">
          <mxGeometry relative="1" as="geometry">
            <mxPoint x="3390" y="2180" as="targetPoint" />
            <mxPoint x="2350.0000000000005" y="2240" as="sourcePoint" />
            <Array as="points">
              <mxPoint x="3390" y="2280" />
            </Array>
          </mxGeometry>
        </mxCell>
        <mxCell id="G65K9xq3bO0bzET8S1sZ-119" style="edgeStyle=orthogonalEdgeStyle;rounded=0;orthogonalLoop=1;jettySize=auto;html=1;dashed=1;endArrow=oval;endFill=1;entryX=0.5;entryY=1;entryDx=0;entryDy=0;" parent="1" source="G65K9xq3bO0bzET8S1sZ-53" target="G65K9xq3bO0bzET8S1sZ-58" edge="1">
          <mxGeometry relative="1" as="geometry">
            <mxPoint x="3400" y="2190" as="targetPoint" />
            <mxPoint x="2500" y="2290" as="sourcePoint" />
            <Array as="points">
              <mxPoint x="2890" y="2260" />
            </Array>
          </mxGeometry>
        </mxCell>
        <mxCell id="G65K9xq3bO0bzET8S1sZ-123" style="edgeStyle=none;rounded=0;orthogonalLoop=1;jettySize=auto;html=1;startArrow=none;startFill=0;endArrow=open;endFill=0;" parent="1" source="G65K9xq3bO0bzET8S1sZ-121" target="G65K9xq3bO0bzET8S1sZ-124" edge="1">
          <mxGeometry relative="1" as="geometry">
            <mxPoint x="720" y="860" as="targetPoint" />
          </mxGeometry>
        </mxCell>
        <mxCell id="G65K9xq3bO0bzET8S1sZ-125" style="edgeStyle=none;rounded=0;orthogonalLoop=1;jettySize=auto;html=1;startArrow=none;startFill=0;endArrow=open;endFill=0;" parent="1" source="G65K9xq3bO0bzET8S1sZ-121" target="G65K9xq3bO0bzET8S1sZ-126" edge="1">
          <mxGeometry relative="1" as="geometry">
            <mxPoint x="690" y="870" as="targetPoint" />
          </mxGeometry>
        </mxCell>
        <mxCell id="G65K9xq3bO0bzET8S1sZ-127" style="edgeStyle=none;rounded=0;orthogonalLoop=1;jettySize=auto;html=1;startArrow=none;startFill=0;endArrow=open;endFill=0;" parent="1" source="G65K9xq3bO0bzET8S1sZ-121" target="G65K9xq3bO0bzET8S1sZ-128" edge="1">
          <mxGeometry relative="1" as="geometry">
            <mxPoint x="690" y="870" as="targetPoint" />
          </mxGeometry>
        </mxCell>
        <mxCell id="G65K9xq3bO0bzET8S1sZ-129" style="edgeStyle=none;rounded=0;orthogonalLoop=1;jettySize=auto;html=1;startArrow=none;startFill=0;endArrow=open;endFill=0;" parent="1" source="G65K9xq3bO0bzET8S1sZ-121" target="G65K9xq3bO0bzET8S1sZ-130" edge="1">
          <mxGeometry relative="1" as="geometry">
            <mxPoint x="690" y="960" as="targetPoint" />
          </mxGeometry>
        </mxCell>
        <mxCell id="G65K9xq3bO0bzET8S1sZ-131" style="edgeStyle=none;rounded=0;orthogonalLoop=1;jettySize=auto;html=1;startArrow=none;startFill=0;endArrow=open;endFill=0;" parent="1" source="G65K9xq3bO0bzET8S1sZ-121" target="G65K9xq3bO0bzET8S1sZ-132" edge="1">
          <mxGeometry relative="1" as="geometry">
            <mxPoint x="760" y="1010" as="targetPoint" />
          </mxGeometry>
        </mxCell>
        <mxCell id="G65K9xq3bO0bzET8S1sZ-133" style="edgeStyle=none;rounded=0;orthogonalLoop=1;jettySize=auto;html=1;startArrow=none;startFill=0;endArrow=open;endFill=0;" parent="1" source="G65K9xq3bO0bzET8S1sZ-121" target="G65K9xq3bO0bzET8S1sZ-134" edge="1">
          <mxGeometry relative="1" as="geometry">
            <mxPoint x="750" y="1080" as="targetPoint" />
          </mxGeometry>
        </mxCell>
        <mxCell id="G65K9xq3bO0bzET8S1sZ-135" style="edgeStyle=none;rounded=0;orthogonalLoop=1;jettySize=auto;html=1;startArrow=none;startFill=0;endArrow=open;endFill=0;" parent="1" source="G65K9xq3bO0bzET8S1sZ-121" target="G65K9xq3bO0bzET8S1sZ-136" edge="1">
          <mxGeometry relative="1" as="geometry">
            <mxPoint x="710" y="1180" as="targetPoint" />
          </mxGeometry>
        </mxCell>
        <mxCell id="G65K9xq3bO0bzET8S1sZ-137" style="edgeStyle=none;rounded=0;orthogonalLoop=1;jettySize=auto;html=1;startArrow=none;startFill=0;endArrow=open;endFill=0;" parent="1" source="G65K9xq3bO0bzET8S1sZ-121" target="G65K9xq3bO0bzET8S1sZ-138" edge="1">
          <mxGeometry relative="1" as="geometry">
            <mxPoint x="700" y="1260" as="targetPoint" />
          </mxGeometry>
        </mxCell>
        <mxCell id="G65K9xq3bO0bzET8S1sZ-139" style="edgeStyle=none;rounded=0;orthogonalLoop=1;jettySize=auto;html=1;startArrow=none;startFill=0;endArrow=open;endFill=0;" parent="1" source="G65K9xq3bO0bzET8S1sZ-121" target="G65K9xq3bO0bzET8S1sZ-140" edge="1">
          <mxGeometry relative="1" as="geometry">
            <mxPoint x="620" y="1320" as="targetPoint" />
          </mxGeometry>
        </mxCell>
        <mxCell id="G65K9xq3bO0bzET8S1sZ-141" style="edgeStyle=none;rounded=0;orthogonalLoop=1;jettySize=auto;html=1;startArrow=none;startFill=0;endArrow=open;endFill=0;" parent="1" source="G65K9xq3bO0bzET8S1sZ-121" target="G65K9xq3bO0bzET8S1sZ-142" edge="1">
          <mxGeometry relative="1" as="geometry">
            <mxPoint x="530" y="1350" as="targetPoint" />
          </mxGeometry>
        </mxCell>
        <mxCell id="BV3SIYlC1HkBFMDemrJt-2" style="rounded=0;orthogonalLoop=1;jettySize=auto;html=1;" parent="1" source="G65K9xq3bO0bzET8S1sZ-121" target="BV3SIYlC1HkBFMDemrJt-1" edge="1">
          <mxGeometry relative="1" as="geometry" />
        </mxCell>
        <mxCell id="G65K9xq3bO0bzET8S1sZ-121" value="Usuario" style="shape=umlActor;verticalLabelPosition=bottom;verticalAlign=top;html=1;outlineConnect=0;" parent="1" vertex="1">
          <mxGeometry x="290" y="1020" width="30" height="60" as="geometry" />
        </mxCell>
        <mxCell id="G65K9xq3bO0bzET8S1sZ-124" value="CU1_INICIAR SESIÓN" style="ellipse;whiteSpace=wrap;html=1;" parent="1" vertex="1">
          <mxGeometry x="245" y="640" width="145" height="80" as="geometry" />
        </mxCell>
        <mxCell id="G65K9xq3bO0bzET8S1sZ-126" value="CU2_CERRAR SESIÓN" style="ellipse;whiteSpace=wrap;html=1;" parent="1" vertex="1">
          <mxGeometry x="410" y="660" width="150" height="80" as="geometry" />
        </mxCell>
        <mxCell id="G65K9xq3bO0bzET8S1sZ-128" value="CU4_SALIR" style="ellipse;whiteSpace=wrap;html=1;" parent="1" vertex="1">
          <mxGeometry x="660" y="780" width="120" height="80" as="geometry" />
        </mxCell>
        <mxCell id="G65K9xq3bO0bzET8S1sZ-130" value="CU5_LS" style="ellipse;whiteSpace=wrap;html=1;" parent="1" vertex="1">
          <mxGeometry x="720" y="860" width="120" height="80" as="geometry" />
        </mxCell>
        <mxCell id="G65K9xq3bO0bzET8S1sZ-132" value="CU6_GET" style="ellipse;whiteSpace=wrap;html=1;" parent="1" vertex="1">
          <mxGeometry x="720" y="950" width="120" height="80" as="geometry" />
        </mxCell>
        <mxCell id="G65K9xq3bO0bzET8S1sZ-134" value="CU7_PUT" style="ellipse;whiteSpace=wrap;html=1;" parent="1" vertex="1">
          <mxGeometry x="710" y="1030" width="120" height="80" as="geometry" />
        </mxCell>
        <mxCell id="G65K9xq3bO0bzET8S1sZ-136" value="CU8_CD" style="ellipse;whiteSpace=wrap;html=1;" parent="1" vertex="1">
          <mxGeometry x="700" y="1130" width="120" height="80" as="geometry" />
        </mxCell>
        <mxCell id="G65K9xq3bO0bzET8S1sZ-138" value="CU9_DEL" style="ellipse;whiteSpace=wrap;html=1;" parent="1" vertex="1">
          <mxGeometry x="640" y="1220" width="120" height="80" as="geometry" />
        </mxCell>
        <mxCell id="G65K9xq3bO0bzET8S1sZ-140" value="CU10_MKDIR" style="ellipse;whiteSpace=wrap;html=1;" parent="1" vertex="1">
          <mxGeometry x="570" y="1300" width="120" height="80" as="geometry" />
        </mxCell>
        <mxCell id="G65K9xq3bO0bzET8S1sZ-142" value="CU11_RMDIR" style="ellipse;whiteSpace=wrap;html=1;" parent="1" vertex="1">
          <mxGeometry x="450" y="1330" width="120" height="80" as="geometry" />
        </mxCell>
        <mxCell id="hbRWo1IAm2r7H_GKPkXh-1" value="INICIO DE LA CONEXON" style="text;html=1;strokeColor=none;fillColor=none;align=center;verticalAlign=middle;whiteSpace=wrap;rounded=0;" parent="1" vertex="1">
          <mxGeometry x="723" y="1917" width="191" height="30" as="geometry" />
        </mxCell>
        <mxCell id="hbRWo1IAm2r7H_GKPkXh-2" value="CLIENTE" style="shape=umlLifeline;perimeter=lifelinePerimeter;container=1;collapsible=0;recursiveResize=0;rounded=0;shadow=0;strokeWidth=1;" parent="1" vertex="1">
          <mxGeometry x="670" y="1960" width="100" height="190" as="geometry" />
        </mxCell>
        <mxCell id="hbRWo1IAm2r7H_GKPkXh-3" value="" style="points=[];perimeter=orthogonalPerimeter;rounded=0;shadow=0;strokeWidth=1;" parent="hbRWo1IAm2r7H_GKPkXh-2" vertex="1">
          <mxGeometry x="45" y="70" width="10" height="100" as="geometry" />
        </mxCell>
        <mxCell id="hbRWo1IAm2r7H_GKPkXh-5" value="SERVIDOR" style="shape=umlLifeline;perimeter=lifelinePerimeter;container=1;collapsible=0;recursiveResize=0;rounded=0;shadow=0;strokeWidth=1;" parent="1" vertex="1">
          <mxGeometry x="850" y="1960" width="100" height="190" as="geometry" />
        </mxCell>
        <mxCell id="hbRWo1IAm2r7H_GKPkXh-6" value="" style="points=[];perimeter=orthogonalPerimeter;rounded=0;shadow=0;strokeWidth=1;" parent="hbRWo1IAm2r7H_GKPkXh-5" vertex="1">
          <mxGeometry x="45" y="80" width="10" height="90" as="geometry" />
        </mxCell>
        <mxCell id="hbRWo1IAm2r7H_GKPkXh-8" value="CONECTAR" style="verticalAlign=bottom;endArrow=block;entryX=0;entryY=0;shadow=0;strokeWidth=1;" parent="1" source="hbRWo1IAm2r7H_GKPkXh-3" target="hbRWo1IAm2r7H_GKPkXh-6" edge="1">
          <mxGeometry relative="1" as="geometry">
            <mxPoint x="825" y="2040" as="sourcePoint" />
          </mxGeometry>
        </mxCell>
        <mxCell id="hbRWo1IAm2r7H_GKPkXh-9" value="ACEPTAR (10)" style="verticalAlign=bottom;endArrow=block;entryX=1;entryY=0;shadow=0;strokeWidth=1;" parent="1" source="hbRWo1IAm2r7H_GKPkXh-6" edge="1">
          <mxGeometry relative="1" as="geometry">
            <mxPoint x="790" y="2080" as="sourcePoint" />
            <mxPoint x="730" y="2080" as="targetPoint" />
          </mxGeometry>
        </mxCell>
        <mxCell id="hbRWo1IAm2r7H_GKPkXh-18" value="STRING &quot;LOGIN&quot;" style="verticalAlign=bottom;endArrow=block;entryX=0;entryY=0;shadow=0;strokeWidth=1;" parent="1" edge="1">
          <mxGeometry relative="1" as="geometry">
            <mxPoint x="1655" y="2020" as="sourcePoint" />
            <mxPoint x="1825" y="2020" as="targetPoint" />
          </mxGeometry>
        </mxCell>
        <mxCell id="hbRWo1IAm2r7H_GKPkXh-7" value="INT nuevo puerto" style="verticalAlign=bottom;endArrow=block;entryX=1.232;entryY=0.319;shadow=0;strokeWidth=1;entryDx=0;entryDy=0;entryPerimeter=0;" parent="1" edge="1">
          <mxGeometry relative="1" as="geometry">
            <mxPoint x="899.5000000000005" y="2117.7" as="sourcePoint" />
            <mxPoint x="727.3200000000006" y="2117.7" as="targetPoint" />
          </mxGeometry>
        </mxCell>
        <mxCell id="hbRWo1IAm2r7H_GKPkXh-19" value="REGISTRO" style="text;html=1;strokeColor=none;fillColor=none;align=center;verticalAlign=middle;whiteSpace=wrap;rounded=0;" parent="1" vertex="1">
          <mxGeometry x="1200" y="1880" width="60" height="30" as="geometry" />
        </mxCell>
        <mxCell id="hbRWo1IAm2r7H_GKPkXh-20" value="CLIENTE" style="shape=umlLifeline;perimeter=lifelinePerimeter;container=1;collapsible=0;recursiveResize=0;rounded=0;shadow=0;strokeWidth=1;" parent="1" vertex="1">
          <mxGeometry x="1100" y="1930" width="100" height="390" as="geometry" />
        </mxCell>
        <mxCell id="hbRWo1IAm2r7H_GKPkXh-21" value="" style="points=[];perimeter=orthogonalPerimeter;rounded=0;shadow=0;strokeWidth=1;" parent="hbRWo1IAm2r7H_GKPkXh-20" vertex="1">
          <mxGeometry x="45" y="70" width="10" height="290" as="geometry" />
        </mxCell>
        <mxCell id="hbRWo1IAm2r7H_GKPkXh-23" value="SERVIDOR" style="shape=umlLifeline;perimeter=lifelinePerimeter;container=1;collapsible=0;recursiveResize=0;rounded=0;shadow=0;strokeWidth=1;" parent="1" vertex="1">
          <mxGeometry x="1280" y="1930" width="100" height="390" as="geometry" />
        </mxCell>
        <mxCell id="hbRWo1IAm2r7H_GKPkXh-24" value="" style="points=[];perimeter=orthogonalPerimeter;rounded=0;shadow=0;strokeWidth=1;" parent="hbRWo1IAm2r7H_GKPkXh-23" vertex="1">
          <mxGeometry x="45" y="80" width="10" height="280" as="geometry" />
        </mxCell>
        <mxCell id="hbRWo1IAm2r7H_GKPkXh-26" value="STRING usuario" style="verticalAlign=bottom;endArrow=block;entryX=0;entryY=0;shadow=0;strokeWidth=1;" parent="1" edge="1">
          <mxGeometry relative="1" as="geometry">
            <mxPoint x="1155" y="2080" as="sourcePoint" />
            <mxPoint x="1325" y="2080" as="targetPoint" />
          </mxGeometry>
        </mxCell>
        <mxCell id="hbRWo1IAm2r7H_GKPkXh-27" value="STRING contraseña" style="verticalAlign=bottom;endArrow=block;entryX=0;entryY=0;shadow=0;strokeWidth=1;" parent="1" edge="1">
          <mxGeometry relative="1" as="geometry">
            <mxPoint x="1155" y="2117" as="sourcePoint" />
            <mxPoint x="1325" y="2117" as="targetPoint" />
          </mxGeometry>
        </mxCell>
        <mxCell id="hbRWo1IAm2r7H_GKPkXh-31" value="INT respuesta login" style="verticalAlign=bottom;endArrow=block;entryX=1;entryY=0;shadow=0;strokeWidth=1;" parent="1" edge="1">
          <mxGeometry relative="1" as="geometry">
            <mxPoint x="1322" y="2160" as="sourcePoint" />
            <mxPoint x="1157" y="2160" as="targetPoint" />
          </mxGeometry>
        </mxCell>
        <mxCell id="hbRWo1IAm2r7H_GKPkXh-34" value="STRING &quot;REGISTRO&quot;" style="verticalAlign=bottom;endArrow=block;entryX=0;entryY=0;shadow=0;strokeWidth=1;" parent="1" edge="1">
          <mxGeometry relative="1" as="geometry">
            <mxPoint x="1155" y="2040" as="sourcePoint" />
            <mxPoint x="1325" y="2040" as="targetPoint" />
          </mxGeometry>
        </mxCell>
        <mxCell id="VUnnAQBpTD60cogu-Hep-1" value="INT CODIGO (fin/continuar)" style="verticalAlign=bottom;endArrow=block;entryX=1;entryY=0;shadow=0;strokeWidth=1;" parent="1" edge="1">
          <mxGeometry relative="1" as="geometry">
            <mxPoint x="3325" y="2198.89" as="sourcePoint" />
            <mxPoint x="3160" y="2198.89" as="targetPoint" />
          </mxGeometry>
        </mxCell>
        <mxCell id="VUnnAQBpTD60cogu-Hep-2" value="INT CODIGO (fin/continuar)" style="verticalAlign=bottom;endArrow=none;entryX=1;entryY=0;shadow=0;strokeWidth=1;endFill=0;startArrow=block;startFill=1;" parent="1" edge="1">
          <mxGeometry relative="1" as="geometry">
            <mxPoint x="3835" y="2210" as="sourcePoint" />
            <mxPoint x="3670" y="2210" as="targetPoint" />
          </mxGeometry>
        </mxCell>
        <mxCell id="VUnnAQBpTD60cogu-Hep-5" value="CLIENTE" style="shape=umlLifeline;perimeter=lifelinePerimeter;container=1;collapsible=0;recursiveResize=0;rounded=0;shadow=0;strokeWidth=1;" parent="1" vertex="1">
          <mxGeometry x="3095" y="2330" width="100" height="280" as="geometry" />
        </mxCell>
        <mxCell id="VUnnAQBpTD60cogu-Hep-6" value="" style="points=[];perimeter=orthogonalPerimeter;rounded=0;shadow=0;strokeWidth=1;" parent="VUnnAQBpTD60cogu-Hep-5" vertex="1">
          <mxGeometry x="45" y="70" width="10" height="190" as="geometry" />
        </mxCell>
        <mxCell id="VUnnAQBpTD60cogu-Hep-8" value="SERVIDOR" style="shape=umlLifeline;perimeter=lifelinePerimeter;container=1;collapsible=0;recursiveResize=0;rounded=0;shadow=0;strokeWidth=1;" parent="1" vertex="1">
          <mxGeometry x="3275" y="2330" width="100" height="280" as="geometry" />
        </mxCell>
        <mxCell id="VUnnAQBpTD60cogu-Hep-9" value="" style="points=[];perimeter=orthogonalPerimeter;rounded=0;shadow=0;strokeWidth=1;" parent="VUnnAQBpTD60cogu-Hep-8" vertex="1">
          <mxGeometry x="45" y="80" width="10" height="180" as="geometry" />
        </mxCell>
        <mxCell id="VUnnAQBpTD60cogu-Hep-10" value="" style="shape=curlyBracket;whiteSpace=wrap;html=1;rounded=1;flipH=1;labelPosition=right;verticalLabelPosition=middle;align=left;verticalAlign=middle;" parent="VUnnAQBpTD60cogu-Hep-8" vertex="1">
          <mxGeometry x="60" y="150" width="20" height="100" as="geometry" />
        </mxCell>
        <mxCell id="VUnnAQBpTD60cogu-Hep-11" value="INT CODIGO" style="verticalAlign=bottom;endArrow=block;entryX=1;entryY=0;shadow=0;strokeWidth=1;" parent="VUnnAQBpTD60cogu-Hep-8" edge="1">
          <mxGeometry relative="1" as="geometry">
            <mxPoint x="45" y="140" as="sourcePoint" />
            <mxPoint x="-120" y="140" as="targetPoint" />
          </mxGeometry>
        </mxCell>
        <mxCell id="VUnnAQBpTD60cogu-Hep-12" value="STRING &quot;GET&quot;" style="verticalAlign=bottom;endArrow=block;entryX=0;entryY=0;shadow=0;strokeWidth=1;" parent="1" source="VUnnAQBpTD60cogu-Hep-6" target="VUnnAQBpTD60cogu-Hep-9" edge="1">
          <mxGeometry relative="1" as="geometry">
            <mxPoint x="3250" y="2410" as="sourcePoint" />
          </mxGeometry>
        </mxCell>
        <mxCell id="VUnnAQBpTD60cogu-Hep-13" value="N BYTES" style="verticalAlign=bottom;endArrow=block;entryX=1;entryY=0;shadow=0;strokeWidth=1;" parent="1" edge="1">
          <mxGeometry relative="1" as="geometry">
            <mxPoint x="3320" y="2540" as="sourcePoint" />
            <mxPoint x="3155" y="2540" as="targetPoint" />
          </mxGeometry>
        </mxCell>
        <mxCell id="VUnnAQBpTD60cogu-Hep-14" value="STRING RUTA" style="verticalAlign=bottom;endArrow=block;entryX=0;entryY=0;shadow=0;strokeWidth=1;" parent="1" edge="1">
          <mxGeometry relative="1" as="geometry">
            <mxPoint x="3151" y="2440" as="sourcePoint" />
            <mxPoint x="3321" y="2440" as="targetPoint" />
          </mxGeometry>
        </mxCell>
        <mxCell id="VUnnAQBpTD60cogu-Hep-15" value="INT CANTIDAD N" style="verticalAlign=bottom;endArrow=block;entryX=1;entryY=0;shadow=0;strokeWidth=1;" parent="1" edge="1">
          <mxGeometry relative="1" as="geometry">
            <mxPoint x="3320" y="2509.76" as="sourcePoint" />
            <mxPoint x="3155" y="2509.76" as="targetPoint" />
          </mxGeometry>
        </mxCell>
        <mxCell id="VUnnAQBpTD60cogu-Hep-16" value="si codigo 10 ok" style="text;html=1;strokeColor=none;fillColor=none;align=center;verticalAlign=middle;whiteSpace=wrap;rounded=0;" parent="1" vertex="1">
          <mxGeometry x="3345" y="2510" width="60" height="30" as="geometry" />
        </mxCell>
        <mxCell id="VUnnAQBpTD60cogu-Hep-18" value="VERSION TEXTO" style="text;html=1;strokeColor=none;fillColor=none;align=center;verticalAlign=middle;whiteSpace=wrap;rounded=0;" parent="1" vertex="1">
          <mxGeometry x="3210" y="1930" width="60" height="30" as="geometry" />
        </mxCell>
        <mxCell id="VUnnAQBpTD60cogu-Hep-19" value="VERSION BYTES" style="text;html=1;strokeColor=none;fillColor=none;align=center;verticalAlign=middle;whiteSpace=wrap;rounded=0;" parent="1" vertex="1">
          <mxGeometry x="3210" y="2310" width="60" height="30" as="geometry" />
        </mxCell>
        <mxCell id="VUnnAQBpTD60cogu-Hep-20" value="VERSION TEXTO" style="text;html=1;strokeColor=none;fillColor=none;align=center;verticalAlign=middle;whiteSpace=wrap;rounded=0;" parent="1" vertex="1">
          <mxGeometry x="3720" y="1950" width="60" height="30" as="geometry" />
        </mxCell>
        <mxCell id="BV3SIYlC1HkBFMDemrJt-1" value="CU3_REGISTRO" style="ellipse;whiteSpace=wrap;html=1;" parent="1" vertex="1">
          <mxGeometry x="555" y="700" width="150" height="80" as="geometry" />
        </mxCell>
        <mxCell id="D00UTDeRLnj4hIng4g-w-7" value="&lt;div style=&quot;&quot;&gt;&lt;span style=&quot;background-color: initial;&quot;&gt;&lt;u&gt;CODIGOS&lt;/u&gt;&lt;/span&gt;&lt;/div&gt;&lt;div style=&quot;&quot;&gt;&lt;span style=&quot;background-color: initial;&quot;&gt;&lt;u&gt;&lt;br&gt;&lt;/u&gt;&lt;/span&gt;&lt;/div&gt;&lt;div style=&quot;&quot;&gt;&lt;span style=&quot;background-color: initial;&quot;&gt;OK:10&lt;/span&gt;&lt;/div&gt;" style="text;html=1;strokeColor=default;fillColor=none;align=left;verticalAlign=top;whiteSpace=wrap;rounded=0;strokeWidth=0.1;" vertex="1" parent="1">
          <mxGeometry x="716" y="2175" width="191" height="58" as="geometry" />
        </mxCell>
      </root>
    </mxGraphModel>
  </diagram>
</mxfile>
